<?xml version="1.0" encoding="utf-8"?>
<!-- Generator: Adobe Illustrator 27.5.0, SVG Export Plug-In . SVG Version: 6.00 Build 0)  -->
<svg version="1.0" id="Layer_1" xmlns="http://www.w3.org/2000/svg" xmlns:xlink="http://www.w3.org/1999/xlink" x="0px" y="0px"
	 viewBox="0 0 280 75" style="enable-background:new 0 0 280 75;" xml:space="preserve">
<style type="text/css">
	.st0{fill:url(#SVGID_1_);}
	.st1{fill:url(#SVGID_00000029021528098261743310000014813509289410507927_);}
	.st2{fill:#FBA10E;}
	.st3{fill:url(#SVGID_00000175320193806962913870000010997256510526575038_);}
	.st4{fill:url(#SVGID_00000041293783575764132290000018444382391469304995_);}
	.st5{fill:url(#SVGID_00000164516425477588441360000011401357818473629372_);}
	.st6{fill:url(#SVGID_00000089537109724518684280000011653462722407616135_);}
	.st7{fill:url(#SVGID_00000085241696591489312780000004873798703224726694_);}
</style>
<g>
	<g>
		<g>
			<g>
				<path d="M194.32,47.01h6.58c5.18,0,8.16,3.62,8.16,8.72c0,5.05-2.92,8.76-8.27,8.76h-6.47L194.32,47.01L194.32,47.01z
					 M200.51,62c3.46,0,5.46-2.32,5.46-6.29c0-3.8-1.82-6.2-5.46-6.2h-3.15V62H200.51z"/>
				<path d="M210.7,47.01h3.05V64.5h-3.05V47.01z"/>
				<path d="M215.42,55.77c0-5.01,2.79-9.09,8.33-9.09c3.97,0,6.78,2.17,7.49,5.78h-3.03c-0.63-2.16-2.36-3.25-4.47-3.25
					c-3.4,0-5.23,2.82-5.23,6.53c0,4.07,2.17,6.54,5.06,6.54c2.84,0,4.85-2.22,4.96-4.91h-5.24v-2.43h8.12v9.55h-2.56v-3.43
					l0.31-0.01c-0.95,2.32-3.08,3.77-5.92,3.77C218.9,64.82,215.42,61.38,215.42,55.77z"/>
				<path d="M233.6,47.01h3.05V64.5h-3.05V47.01z"/>
				<path d="M243.31,49.51h-5.5v-2.49h14.04v2.49h-5.49V64.5h-3.05L243.31,49.51L243.31,49.51z"/>
				<path d="M257.48,47.01h2.79l-1.69,5.24l-4.16,12.24h-3.16L257.48,47.01z M255.62,57.3h7.65v2.44h-7.65V57.3z M260.3,52.19
					l-1.67-5.18h2.79l6.23,17.48h-3.17L260.3,52.19z"/>
				<path d="M268.62,47.01h3.05V62H280v2.49h-11.38V47.01L268.62,47.01z"/>
			</g>
		</g>
		<g>
			<g>
				<g>
					<path d="M42.31,31.36h3.2c0.3,4.4,3.52,7.04,8.22,7.04c4.04,0,7.32-1.95,7.32-5.63c0-3.71-3.39-4.87-8.05-6.18
						c-4.08-1.12-9.81-2.62-9.81-8.7c0-5.54,4.72-7.73,10.01-7.73c6.18,0,9.88,3.01,10.26,8.61h-3.2C59.9,14.96,57.28,13,53.07,13
						c-3.82,0-6.66,1.63-6.66,4.83c0,3.61,3.59,4.57,7.41,5.67c6.36,1.85,10.46,3.56,10.46,9.08c0,6.18-5.13,8.65-10.54,8.65
						C46.89,41.24,42.55,37.42,42.31,31.36z"/>
					<path d="M67.8,30.31V10.73h3.22v19.75c0,4.57,3.33,7.88,7.94,7.88c4.57,0,7.94-3.24,7.94-7.79V10.73h3.22V30.4
						c0,6.27-4.79,10.84-11.17,10.84C72.55,41.24,67.8,36.62,67.8,30.31z"/>
					<path d="M94.02,25.61c0-9.23,5.22-15.44,13.57-15.44c6.14,0,10.74,3.33,12.32,9.38h-3.24c-1.37-4.19-4.55-6.53-8.97-6.53
						c-6.83,0-10.41,5.58-10.41,12.45c0,7.02,3.69,12.88,10.09,12.88c4.98,0,8.48-3.54,9.36-8.18h3.24
						c-1.25,6.74-5.78,11.06-12.67,11.06C98.76,41.24,94.02,34.45,94.02,25.61z"/>
					<path d="M122.29,25.61c0-9.23,5.22-15.44,13.57-15.44c6.14,0,10.74,3.33,12.32,9.38h-3.24c-1.37-4.19-4.55-6.53-8.98-6.53
						c-6.83,0-10.41,5.58-10.41,12.45c0,7.02,3.69,12.88,10.09,12.88c4.98,0,8.48-3.54,9.36-8.18h3.24
						c-1.25,6.74-5.78,11.06-12.67,11.06C127.04,41.24,122.29,34.45,122.29,25.61z"/>
					<path d="M151.75,10.73h19.97v2.81h-16.75V23.8h15.76v2.81h-15.76v11.25h17.5v2.81h-20.72V10.73z"/>
					<path d="M174.79,31.36h3.2c0.3,4.4,3.52,7.04,8.22,7.04c4.04,0,7.32-1.95,7.32-5.63c0-3.71-3.39-4.87-8.05-6.18
						c-4.08-1.12-9.81-2.62-9.81-8.7c0-5.54,4.72-7.73,10.01-7.73c6.18,0,9.88,3.01,10.26,8.61h-3.2c-0.37-3.82-2.98-5.78-7.19-5.78
						c-3.82,0-6.66,1.63-6.66,4.83c0,3.61,3.59,4.57,7.41,5.67c6.36,1.85,10.46,3.56,10.46,9.08c0,6.18-5.13,8.65-10.54,8.65
						C179.36,41.24,175.02,37.42,174.79,31.36z"/>
					<path d="M198.77,31.36h3.2c0.3,4.4,3.52,7.04,8.22,7.04c4.04,0,7.32-1.95,7.32-5.63c0-3.71-3.39-4.87-8.05-6.18
						c-4.08-1.12-9.81-2.62-9.81-8.7c0-5.54,4.72-7.73,10.01-7.73c6.18,0,9.88,3.01,10.26,8.61h-3.2c-0.37-3.82-2.98-5.78-7.19-5.78
						c-3.82,0-6.66,1.63-6.66,4.83c0,3.61,3.59,4.57,7.41,5.67c6.36,1.85,10.46,3.56,10.46,9.08c0,6.18-5.13,8.65-10.54,8.65
						C203.34,41.24,199.01,37.42,198.77,31.36z"/>
					<path d="M224.34,10.73h3.22v29.95h-3.22V10.73z"/>
					<path d="M230.57,10.73h3.52l9,26.41l9.02-26.41h3.52l-10.35,29.95h-4.34L230.57,10.73z"/>
					<path d="M258.65,10.73h19.97v2.81h-16.75V23.8h15.76v2.81h-15.76v11.25h17.5v2.81h-20.72V10.73z"/>
				</g>
			</g>
			<g>
				<g>

						<linearGradient id="SVGID_1_" gradientUnits="userSpaceOnUse" x1="27.677" y1="64.2276" x2="19.5386" y2="49.5457" gradientTransform="matrix(1 0 0 -1 0 75)">
						<stop  offset="0.1403" style="stop-color:#FECA0F"/>
						<stop  offset="0.575" style="stop-color:#FDBF0E"/>
						<stop  offset="1" style="stop-color:#FBAF0C"/>
					</linearGradient>
					<path class="st0" d="M22.79,27.25L22.79,27.25l9.93-11.01c0,0,0.9-0.79,0-1.58l-2.46-2.34c0,0-1.7-1.43-3.76-1.58
						s-3.98,0.51-5.6,1.99c-1,0.92-4.07,4.36-6.27,6.87C14.63,19.61,18.56,23.3,22.79,27.25z"/>

						<linearGradient id="SVGID_00000086653723684575086940000017214358248752408505_" gradientUnits="userSpaceOnUse" x1="14.581" y1="55.3393" x2="14.581" y2="55.3393" gradientTransform="matrix(1 0 0 -1 0 75)">
						<stop  offset="0.1403" style="stop-color:#FECA0F"/>
						<stop  offset="0.575" style="stop-color:#FDBF0E"/>
						<stop  offset="1" style="stop-color:#FBAF0C"/>
					</linearGradient>
					<path style="fill:url(#SVGID_00000086653723684575086940000017214358248752408505_);" d="M14.58,19.66"/>
				</g>
				<path class="st2" d="M19.9,30.43l2.89-3.17c-4.22-3.96-8.16-7.65-8.16-7.65c-1.37,1.56-2.4,2.75-2.4,2.75s-1.77,1.87-2,4.28
					c0,0-0.09,1.24,0.13,2.26c0.27,1.24,0.89,2.63,2.73,4.19l6.9,6.46C19.98,39.56,15.36,35.22,19.9,30.43z"/>

					<linearGradient id="SVGID_00000013179827474277652270000002770622315826101134_" gradientUnits="userSpaceOnUse" x1="19.1793" y1="44.1388" x2="28.9316" y2="34.3866" gradientTransform="matrix(1 0 0 -1 0 75)">
					<stop  offset="0" style="stop-color:#DC3325"/>
					<stop  offset="1" style="stop-color:#FE5F25"/>
				</linearGradient>
				<path style="fill:url(#SVGID_00000013179827474277652270000002770622315826101134_);" d="M32.94,36.74
					c-0.63-0.56-10.14-9.49-10.14-9.49l-0.01,0.01l0,0l-2.89,3.17c-3.1,3.28-1.92,6.34-0.86,7.95c0.36,0.52,0.82,1.05,1.39,1.59
					c0,0,4.16,4.9,9.02,1.38l3.45-3.5C32.9,37.85,33.57,37.3,32.94,36.74z"/>
				<g>

						<linearGradient id="SVGID_00000165201410175733894180000014374047227973755577_" gradientUnits="userSpaceOnUse" x1="481.9472" y1="1064.0474" x2="473.8088" y2="1049.3654" gradientTransform="matrix(-1 0 0 1 487.4802 -999.6285)">
						<stop  offset="0" style="stop-color:#03A8F4"/>
						<stop  offset="1" style="stop-color:#00CDF9"/>
					</linearGradient>
					<path style="fill:url(#SVGID_00000165201410175733894180000014374047227973755577_);" d="M10.42,47.94L10.42,47.94L0.49,58.95
						c0,0-0.9,0.79,0,1.58l2.46,2.34c0,0,1.7,1.43,3.76,1.58c2.06,0.15,3.98-0.51,5.6-1.99c1-0.92,4.07-4.36,6.27-6.87
						C18.58,55.58,14.65,51.89,10.42,47.94z"/>

						<linearGradient id="SVGID_00000132779558871690605900000001146385662266102193_" gradientUnits="userSpaceOnUse" x1="468.8512" y1="1055.1591" x2="468.8512" y2="1055.1591" gradientTransform="matrix(-1 0 0 1 487.4802 -999.6285)">
						<stop  offset="0" style="stop-color:#03A8F4"/>
						<stop  offset="1" style="stop-color:#00CDF9"/>
					</linearGradient>
					<path style="fill:url(#SVGID_00000132779558871690605900000001146385662266102193_);" d="M18.63,55.53"/>
				</g>

					<linearGradient id="SVGID_00000173842659996744296490000013504456681727027111_" gradientUnits="userSpaceOnUse" x1="10.4221" y1="29.3905" x2="23.0063" y2="29.3905" gradientTransform="matrix(1 0 0 -1 0 75)">
					<stop  offset="0.1403" style="stop-color:#03ABF4"/>
					<stop  offset="1" style="stop-color:#00CDF9"/>
				</linearGradient>
				<path style="fill:url(#SVGID_00000173842659996744296490000013504456681727027111_);" d="M13.31,44.76l-2.89,3.17
					c4.22,3.96,8.16,7.65,8.16,7.65c1.37-1.56,2.4-2.75,2.4-2.75s1.77-1.87,2-4.28c0,0,0.09-1.24-0.13-2.26
					c-0.27-1.24-0.89-2.63-2.73-4.19l-6.9-6.46C13.23,35.64,17.85,39.97,13.31,44.76z"/>

					<linearGradient id="SVGID_00000155125260710089691440000011598193086740011162_" gradientUnits="userSpaceOnUse" x1="487.479" y1="1039.8844" x2="473.0957" y2="1039.8844" gradientTransform="matrix(-1 0 0 1 487.4802 -999.6285)">
					<stop  offset="0" style="stop-color:#006FD1"/>
					<stop  offset="1" style="stop-color:#3251A6"/>
				</linearGradient>
				<path style="fill:url(#SVGID_00000155125260710089691440000011598193086740011162_);" d="M0.27,38.45
					c0.63,0.56,10.14,9.49,10.14,9.49l0.01-0.01l0,0l2.89-3.17c3.1-3.28,1.92-6.34,0.86-7.95c-0.36-0.52-0.82-1.05-1.39-1.59
					c0,0-4.16-4.9-9.02-1.38l-3.45,3.5C0.31,37.34-0.36,37.89,0.27,38.45z"/>
			</g>
		</g>
	</g>
</g>
</svg>
